<?xml version="1.0" encoding="UTF-8" standalone="no"?>
<svg
   sodipodi:docname="csas-transaction-report.svg"
   inkscape:version="1.2.2 (b0a8486541, 2022-12-01)"
   id="svg8"
   version="1.1"
   viewBox="0 0 100 100"
   height="100mm"
   width="100mm"
   xmlns:inkscape="http://www.inkscape.org/namespaces/inkscape"
   xmlns:sodipodi="http://sodipodi.sourceforge.net/DTD/sodipodi-0.dtd"
   xmlns:xlink="http://www.w3.org/1999/xlink"
   xmlns="http://www.w3.org/2000/svg"
   xmlns:svg="http://www.w3.org/2000/svg"
   xmlns:rdf="http://www.w3.org/1999/02/22-rdf-syntax-ns#"
   xmlns:cc="http://creativecommons.org/ns#"
   xmlns:dc="http://purl.org/dc/elements/1.1/">
  <defs
     id="defs2">
    <inkscape:path-effect
       effect="perspective-envelope"
       up_left_point="-22.859595,140.15918"
       up_right_point="-20.133806,140.17628"
       down_left_point="-28.513404,155.95033"
       down_right_point="-14.536702,155.95033"
       id="path-effect794"
       is_visible="true"
       lpeversion="1"
       deform_type="perspective"
       horizontal_mirror="false"
       vertical_mirror="true"
       overflow_perspective="true" />
    <clipPath
       id="clipPath3444">
      <path
         id="path3446"
         d="M 11.52,162 C 11.52,81.677 135.307,16.56 288,16.56 440.693,16.56 564.48,81.678 564.48,162 564.48,242.322 440.693,307.44 288,307.44 135.307,307.44 11.52,242.32 11.52,162" />
    </clipPath>
    <radialGradient
       id="radialGradient3452"
       cx="0"
       cy="0"
       r="1"
       fx="0"
       fy="0"
       gradientTransform="matrix(363.06,0,0,-363.06,177.52,256.31)"
       gradientUnits="userSpaceOnUse"
       spreadMethod="pad">
      <stop
         id="stop3454"
         offset="0"
         stop-color="#aeb2d5" />
      <stop
         id="stop3456"
         offset="0.3"
         stop-color="#aeb2d5" />
      <stop
         id="stop3458"
         offset="0.75"
         stop-color="#484c89" />
      <stop
         id="stop3460"
         offset="1"
         stop-color="#484c89" />
    </radialGradient>
    <clipPath
       id="clipPath3468">
      <path
         id="path3470"
         d="M 0,324 H 576 V 0 H 0 Z" />
    </clipPath>
    <filter
       style="color-interpolation-filters:sRGB"
       inkscape:label="Drop Shadow"
       id="filter4622"
       x="-0.1215186"
       y="-0.21051334"
       width="1.29367"
       height="1.5087406">
      <feFlood
         flood-opacity="0.498039"
         flood-color="rgb(0,0,0)"
         result="flood"
         id="feFlood4612" />
      <feComposite
         in="flood"
         in2="SourceGraphic"
         operator="in"
         result="composite1"
         id="feComposite4614" />
      <feGaussianBlur
         in="composite1"
         stdDeviation="6"
         result="blur"
         id="feGaussianBlur4616" />
      <feOffset
         dx="6"
         dy="6"
         result="offset"
         id="feOffset4618" />
      <feComposite
         in="SourceGraphic"
         in2="offset"
         operator="over"
         result="fbSourceGraphic"
         id="feComposite4620" />
      <feColorMatrix
         result="fbSourceGraphicAlpha"
         in="fbSourceGraphic"
         values="0 0 0 -1 0 0 0 0 -1 0 0 0 0 -1 0 0 0 0 1 0"
         id="feColorMatrix4624" />
      <feFlood
         id="feFlood4626"
         flood-opacity="0.498039"
         flood-color="rgb(0,0,0)"
         result="flood"
         in="fbSourceGraphic" />
      <feComposite
         in2="fbSourceGraphic"
         id="feComposite4628"
         in="flood"
         operator="in"
         result="composite1" />
      <feGaussianBlur
         id="feGaussianBlur4630"
         in="composite1"
         stdDeviation="6"
         result="blur" />
      <feOffset
         id="feOffset4632"
         dx="6"
         dy="6"
         result="offset" />
      <feComposite
         in2="offset"
         id="feComposite4634"
         in="fbSourceGraphic"
         operator="over"
         result="fbSourceGraphic" />
      <feColorMatrix
         result="fbSourceGraphicAlpha"
         in="fbSourceGraphic"
         values="0 0 0 -1 0 0 0 0 -1 0 0 0 0 -1 0 0 0 0 1 0"
         id="feColorMatrix4636" />
      <feFlood
         id="feFlood4638"
         flood-opacity="0.498039"
         flood-color="rgb(0,0,0)"
         result="flood"
         in="fbSourceGraphic" />
      <feComposite
         in2="fbSourceGraphic"
         id="feComposite4640"
         in="flood"
         operator="in"
         result="composite1" />
      <feGaussianBlur
         id="feGaussianBlur4642"
         in="composite1"
         stdDeviation="6"
         result="blur" />
      <feOffset
         id="feOffset4644"
         dx="6"
         dy="6"
         result="offset" />
      <feComposite
         in2="offset"
         id="feComposite4646"
         in="fbSourceGraphic"
         operator="over"
         result="composite2" />
    </filter>
    <filter
       style="color-interpolation-filters:sRGB"
       inkscape:label="Blur"
       id="filter2058">
      <feGaussianBlur
         stdDeviation="10.5635 0.01"
         result="fbSourceGraphic"
         id="feGaussianBlur2056" />
      <feColorMatrix
         result="fbSourceGraphicAlpha"
         in="fbSourceGraphic"
         values="0 0 0 -1 0 0 0 0 -1 0 0 0 0 -1 0 0 0 0 1 0"
         id="feColorMatrix2060" />
      <feGaussianBlur
         id="feGaussianBlur2062"
         stdDeviation="10.5635 0.01"
         result="blur"
         in="fbSourceGraphic" />
    </filter>
    <linearGradient
       id="XMLID_1_"
       gradientUnits="userSpaceOnUse"
       x1="168.0361"
       y1="168.21001"
       x2="83.149902"
       y2="83.324303">
      <stop
         offset="0"
         style="stop-color:#6D7BB0"
         id="stop164" />
      <stop
         offset="1"
         style="stop-color:#99ACD2"
         id="stop165" />
    </linearGradient>
    <linearGradient
       id="XMLID_2_"
       gradientUnits="userSpaceOnUse"
       x1="168.7178"
       y1="174.6357"
       x2="83.831703"
       y2="89.750298">
      <stop
         offset="0"
         style="stop-color:#6D7BB0"
         id="stop171" />
      <stop
         offset="1"
         style="stop-color:#99ACD2"
         id="stop172" />
    </linearGradient>
    <linearGradient
       id="XMLID_3_"
       gradientUnits="userSpaceOnUse"
       x1="126.9795"
       y1="130.9922"
       x2="233.56219"
       y2="237.576"
       gradientTransform="matrix(0.9929,-0.1191,-0.056,1.0138,7.7556,8.876)">
      <stop
         offset="0"
         style="stop-color:#D8E1ED"
         id="stop178" />
      <stop
         offset="1"
         style="stop-color:#5E76AA"
         id="stop179" />
    </linearGradient>
    <linearGradient
       id="XMLID_4_"
       gradientUnits="userSpaceOnUse"
       x1="126.0381"
       y1="144.81841"
       x2="126.0381"
       y2="77.567299">
      <stop
         offset="0"
         style="stop-color:#808DC2"
         id="stop185" />
      <stop
         offset="1"
         style="stop-color:#5E76AA"
         id="stop186" />
    </linearGradient>
    <linearGradient
       id="XMLID_5_"
       gradientUnits="userSpaceOnUse"
       x1="121.2769"
       y1="91.971703"
       x2="121.2769"
       y2="13.3879"
       gradientTransform="matrix(0.9929,-0.1191,-0.056,1.0138,7.7556,8.876)">
      <stop
         offset="0"
         style="stop-color:#DBE8F2"
         id="stop192" />
      <stop
         offset="0.2847"
         style="stop-color:#D9E6F1"
         id="stop193" />
      <stop
         offset="0.4359"
         style="stop-color:#D1DFED"
         id="stop194" />
      <stop
         offset="0.5557"
         style="stop-color:#C3D3E7"
         id="stop195" />
      <stop
         offset="0.659"
         style="stop-color:#B0C3DF"
         id="stop196" />
      <stop
         offset="0.7518"
         style="stop-color:#97ADD3"
         id="stop197" />
      <stop
         offset="0.837"
         style="stop-color:#7893C5"
         id="stop198" />
      <stop
         offset="0.9163"
         style="stop-color:#5473B5"
         id="stop199" />
      <stop
         offset="0.9891"
         style="stop-color:#2B50A2"
         id="stop200" />
      <stop
         offset="1"
         style="stop-color:#244A9F"
         id="stop201" />
    </linearGradient>
    <linearGradient
       id="linearGradient3679">
      <stop
         id="stop3681"
         style="stop-color:#e2e7e4"
         offset="0" />
      <stop
         id="stop3683"
         style="stop-color:#737373"
         offset="1" />
    </linearGradient>
    <radialGradient
       id="radialGradient988"
       xlink:href="#linearGradient3679"
       gradientUnits="userSpaceOnUse"
       cy="239.28"
       cx="-541.81"
       gradientTransform="matrix(1,0,0,0.9864,0,3.2551)"
       r="8.9157"
       inkscape:collect="always" />
    <radialGradient
       id="radialGradient996"
       xlink:href="#linearGradient3679"
       gradientUnits="userSpaceOnUse"
       cy="239.28"
       cx="-541.81"
       gradientTransform="matrix(1,0,0,0.9864,0,3.2551)"
       r="8.9157"
       inkscape:collect="always" />
    <radialGradient
       id="radialGradient1004"
       xlink:href="#linearGradient3679"
       gradientUnits="userSpaceOnUse"
       cy="239.28"
       cx="-541.81"
       gradientTransform="matrix(1,0,0,0.9864,0,3.2551)"
       r="8.9157"
       inkscape:collect="always" />
    <radialGradient
       id="radialGradient1012"
       xlink:href="#linearGradient3679"
       gradientUnits="userSpaceOnUse"
       cy="239.28"
       cx="-541.81"
       gradientTransform="matrix(1,0,0,0.9864,0,3.2551)"
       r="8.9157"
       inkscape:collect="always" />
    <radialGradient
       id="radialGradient1020"
       xlink:href="#linearGradient3679"
       gradientUnits="userSpaceOnUse"
       cy="239.28"
       cx="-541.81"
       gradientTransform="matrix(1,0,0,0.9864,0,3.2551)"
       r="8.9157"
       inkscape:collect="always" />
    <radialGradient
       id="radialGradient1028"
       xlink:href="#linearGradient3679"
       gradientUnits="userSpaceOnUse"
       cy="239.28"
       cx="-541.81"
       gradientTransform="matrix(1,0,0,0.9864,0,3.2551)"
       r="8.9157"
       inkscape:collect="always" />
    <radialGradient
       id="radialGradient1036"
       xlink:href="#linearGradient3679"
       gradientUnits="userSpaceOnUse"
       cy="239.28"
       cx="-541.81"
       gradientTransform="matrix(1,0,0,0.9864,0,3.2551)"
       r="8.9157"
       inkscape:collect="always" />
    <radialGradient
       id="radialGradient1044"
       xlink:href="#linearGradient3679"
       gradientUnits="userSpaceOnUse"
       cy="239.28"
       cx="-541.81"
       gradientTransform="matrix(1,0,0,0.9864,0,3.2551)"
       r="8.9157"
       inkscape:collect="always" />
    <radialGradient
       id="radialGradient1054"
       xlink:href="#linearGradient3679"
       gradientUnits="userSpaceOnUse"
       cy="239.28"
       cx="-541.81"
       gradientTransform="matrix(1,0,0,0.9864,0,3.2551)"
       r="8.9157"
       inkscape:collect="always" />
    <radialGradient
       id="radialGradient1062"
       xlink:href="#linearGradient3679"
       gradientUnits="userSpaceOnUse"
       cy="239.28"
       cx="-541.81"
       gradientTransform="matrix(1,0,0,0.9864,0,3.2551)"
       r="8.9157"
       inkscape:collect="always" />
    <radialGradient
       id="radialGradient1070"
       xlink:href="#linearGradient3679"
       gradientUnits="userSpaceOnUse"
       cy="239.28"
       cx="-541.81"
       gradientTransform="matrix(1,0,0,0.9864,0,3.2551)"
       r="8.9157"
       inkscape:collect="always" />
  </defs>
  <sodipodi:namedview
     inkscape:window-maximized="1"
     inkscape:window-y="0"
     inkscape:window-x="0"
     inkscape:window-height="1164"
     inkscape:window-width="1920"
     showgrid="false"
     inkscape:document-rotation="0"
     inkscape:current-layer="g2598"
     inkscape:document-units="mm"
     inkscape:cy="244.96199"
     inkscape:cx="84.852813"
     inkscape:zoom="0.9899495"
     inkscape:pageshadow="2"
     inkscape:pageopacity="0.0"
     borderopacity="1.0"
     bordercolor="#666666"
     pagecolor="#ffffff"
     id="base"
     inkscape:showpageshadow="2"
     inkscape:pagecheckerboard="0"
     inkscape:deskcolor="#d1d1d1" />
  <metadata
     id="metadata5">
    <rdf:RDF>
      <cc:Work
         rdf:about="">
        <dc:format>image/svg+xml</dc:format>
        <dc:type
           rdf:resource="http://purl.org/dc/dcmitype/StillImage" />
      </cc:Work>
    </rdf:RDF>
  </metadata>
  <g
     id="layer1"
     inkscape:groupmode="layer"
     inkscape:label="Vrstva 1" />
  <g
     inkscape:label="Vrstva 3"
     id="layer3"
     inkscape:groupmode="layer">
    <g
       transform="matrix(1.4033481,0,0,1.4033481,120.67578,7.0231252)"
       id="g2598">
      <text
         xml:space="preserve"
         style="font-style:normal;font-weight:normal;font-size:33.6794px;line-height:1.25;font-family:sans-serif;fill:#000000;fill-opacity:1;stroke:none;stroke-width:0.841977"
         x="-74.706207"
         y="44.103935"
         id="text2822"
         transform="scale(1.1344194,0.88150819)"><tspan
           sodipodi:role="line"
           id="tspan2820"
           style="stroke-width:0.841977"
           x="-74.706207"
           y="44.103935">{    }</tspan></text>
      <g
         transform="matrix(0.40617162,0,0,0.40617162,-71.483183,21.891839)"
         id="g5">
        <path
           style="fill:#e30613"
           id="path7"
           d="m 92.4,0 c 0.9,0 1.8,0.4 2.4,1 0.7,0.7 1,1.5 1,2.5 0,1 -0.3,1.8 -1,2.5 -0.7,0.7 -1.5,1 -2.5,1 -1,0 -1.8,-0.3 -2.5,-1 -0.7,-0.7 -1,-1.5 -1,-2.5 0,-1 0.3,-1.8 1,-2.5 0.9,-0.6 1.7,-1 2.6,-1 z M 104,14.1 v -2.2 c 0,-2 -1.7,-3.7 -3.7,-3.7 H 84.6 c -2,0 -3.7,1.7 -3.7,3.7 V 20 h 17.5 v 1.2 H 80.9 v 2.2 c 0,2 1.7,3.7 3.7,3.7 h 15.7 c 2,0 3.7,-1.7 3.7,-3.7 V 15.3 H 86.5 v -1.2 z"
           class="st0" />
        <path
           style="fill:#00497b"
           id="path9"
           d="m 8.1,8.1 c 3.9,0 5.2,0.7 5.2,2.3 v 1.8 H 8.1 c -2.6,0 -3.2,1.1 -3.2,5.5 0,4.3 0.6,5.5 3.2,5.5 h 5.2 V 25 c 0,1.6 -1.3,2.3 -5.2,2.3 C 2.9,27.3 0,24.4 0,17.7 0,10.9 2.8,8.1 8.1,8.1 Z M 7.4,7.2 C 7,7.2 6.8,7.1 6.5,6.7 L 4.1,3.6 C 4,3.5 4,3.3 4,3.2 h 1.8 c 0.4,0 0.5,0.1 0.9,0.4 L 8,4.8 9.2,3.7 C 9.6,3.3 9.8,3.3 10.1,3.3 H 12 c 0,0.1 0,0.3 -0.1,0.4 l -2.4,3 C 9.2,7.1 9,7.2 8.6,7.2 Z m 7.4,2.7 c 0,-1.1 0.5,-1.7 1.6,-1.7 h 10.4 v 2.3 c 0,1.1 -0.6,1.7 -1.7,1.7 h -5.6 v 3.4 h 6.2 v 3.8 h -6.2 v 3.7 h 7.4 v 2.3 c 0,1.1 -0.6,1.7 -1.7,1.7 h -8.8 c -1.1,0 -1.6,-0.6 -1.6,-1.7 z m 20,-1.8 c 3.9,0 6,0.4 6,2.3 v 1.9 h -5.4 c -1.4,0 -1.9,0.4 -1.9,1.2 0,2.3 8.2,1.8 8.2,8.2 0,3 -1.7,5.7 -7.1,5.7 -3.5,0 -6.2,-0.6 -6.2,-2.3 v -1.9 h 6.4 c 1.3,0 1.9,-0.4 1.9,-1.3 0,-2.5 -8.2,-2 -8.2,-8.6 0,-2.9 1.9,-5.2 6.3,-5.2 z m 13.7,8.8 4.7,-7.8 C 53.6,8.3 53.9,8.2 54.5,8.2 H 59 C 59,8.5 58.9,8.7 58.8,9 l -5.4,8.3 5.7,9 c 0.1,0.2 0.3,0.5 0.3,0.8 H 55 c -0.9,0 -1.2,-0.1 -1.7,-0.9 L 48.4,18.4 V 27 H 43.7 V 9.9 c 0,-1.1 0.5,-1.7 1.6,-1.7 h 3.1 v 8.7 z M 70,8.2 c 0.8,0 1.2,0.1 1.4,0.8 l 4.4,17.5 c 0.1,0.3 0.1,0.5 0.1,0.7 H 72 c -0.8,0 -1,-0.1 -1.2,-0.7 l -0.9,-3.8 h -4.4 l -0.9,3.8 c -0.1,0.7 -0.4,0.7 -1.2,0.7 h -3.8 c 0,-0.2 0,-0.4 0.1,-0.7 L 64.1,9 c 0.2,-0.7 0.6,-0.8 1.4,-0.8 z m -3.8,10.9 h 2.9 L 67.7,13 h -0.1 z m 3,-12.3 c -0.4,0.4 -0.6,0.4 -0.9,0.4 h -1.8 c 0,-0.1 0,-0.3 0.1,-0.4 L 69,3.7 c 0.3,-0.4 0.5,-0.5 0.9,-0.5 h 1.8 c 0.2,0 0.3,0.1 0.3,0.2 0,0.1 -0.1,0.2 -0.3,0.5 z M 2.6,33.3 c 1.3,0 2.2,0 2.2,0.7 v 0.4 H 2.6 c -0.7,0 -1.1,0.3 -1.1,0.8 0,1.5 3.7,1.1 3.7,3.6 0,1.2 -0.8,2.1 -2.9,2.1 -1.2,0 -2.3,0 -2.3,-0.6 v -0.4 h 2.5 c 0.9,0 1.3,-0.3 1.3,-1 0,-1.4 -3.7,-1.1 -3.7,-3.6 0,-1.3 0.9,-2 2.5,-2 z m 5,9.7 H 6.3 V 33.4 H 7 c 0.5,0 0.7,0.3 0.7,0.6 v 0.2 c 0.4,-0.5 1.1,-0.9 1.9,-0.9 1.7,0 2.6,1.4 2.6,3.8 0,2.3 -0.8,3.8 -2.6,3.8 -0.8,0 -1.5,-0.4 -1.9,-0.9 v 3 z M 9.1,34.4 C 8.5,34.4 8,34.7 7.6,35 v 4.1 c 0.4,0.4 0.9,0.6 1.5,0.6 1.2,0 1.6,-0.9 1.6,-2.7 0,-1.6 -0.5,-2.6 -1.6,-2.6 z m 3.9,2.7 c 0,-2.1 0.7,-3.8 3,-3.8 2.3,0 3,1.7 3,3.8 0,2.1 -0.7,3.8 -3,3.8 -2.3,0 -3,-1.7 -3,-3.8 z m 4.6,0 c 0,-1.8 -0.4,-2.8 -1.6,-2.8 -1.3,0 -1.6,1 -1.6,2.8 0,1.8 0.4,2.8 1.6,2.8 1.3,0 1.6,-1 1.6,-2.8 z m 4.1,-4.4 c -0.2,0 -0.3,0 -0.4,-0.3 L 20.1,31 C 20,31 20,30.9 20,30.9 h 0.6 c 0.2,0 0.3,0 0.5,0.2 l 0.8,0.7 0.8,-0.7 c 0.2,-0.2 0.3,-0.2 0.5,-0.2 h 0.6 c 0,0.1 0,0.1 -0.1,0.2 l -1.2,1.4 c -0.2,0.2 -0.3,0.3 -0.4,0.3 h -0.4 z m -1.4,8.1 V 33.4 H 21 c 0.4,0 0.6,0.4 0.7,0.9 0.6,-0.8 1.3,-1 1.9,-1 0.3,0 0.5,0.1 0.5,0.4 v 0.9 h -0.4 c -1.1,0 -1.6,0.3 -2.1,0.6 v 5.5 H 20.3 Z M 26,32.6 h -1.3 v -0.8 c 0,-0.4 0.2,-0.7 0.6,-0.7 H 26 Z m -1.3,0.8 h 0.7 c 0.5,0 0.6,0.3 0.6,0.7 v 6.7 h -1.3 z m 4.6,0 h 1.6 v 1 h -1.6 v 4.5 c 0,0.6 0.1,0.9 0.5,0.9 h 1.1 v 0.3 c 0,0.6 -0.5,0.7 -1.3,0.7 -1.5,0 -1.7,-0.8 -1.7,-1.9 V 34.4 H 27 v -0.7 l 0.9,-0.3 0.5,-1.2 c 0.1,-0.3 0.3,-0.4 0.5,-0.4 h 0.3 v 1.6 z m 7.4,6.4 v 0.3 c 0,0.6 -0.8,0.7 -2.4,0.7 -2.3,0 -3,-1.7 -3,-3.8 0,-2.1 0.8,-3.8 3,-3.8 1.8,0 2.8,1.1 2.8,2.8 0,0.3 0,0.7 -0.1,1.4 h -4.3 c 0,1.7 0.6,2.4 1.8,2.4 z m -1,-3.3 c 0,-0.1 0,-0.4 0,-0.6 0,-0.7 -0.3,-1.6 -1.4,-1.6 -1,0 -1.6,0.7 -1.6,2.2 z m 3.9,4.3 h -1.3 v -9.1 c 0,-0.4 0.2,-0.7 0.6,-0.7 h 0.7 z m 1.6,0 v -7.4 h 0.7 c 0.5,0 0.7,0.3 0.7,0.6 v 0.3 c 0.6,-0.7 1.4,-0.9 2.1,-0.9 1.4,0 2.1,0.9 2.1,2.3 v 5.2 h -1.3 v -5.1 c 0,-0.9 -0.5,-1.2 -1.3,-1.2 -0.6,0 -1.1,0.3 -1.6,0.6 V 41 h -1.4 z m 11.7,0 c -0.5,0 -0.7,-0.3 -0.7,-0.6 V 40 c -0.6,0.7 -1.4,0.9 -2.1,0.9 -1.3,0 -2.2,-0.8 -2.2,-2.1 0,-1.9 2,-2.3 4.2,-2.4 v -0.7 c 0,-1 -0.7,-1.3 -1.6,-1.3 H 48.4 V 34 c 0,-0.7 0.8,-0.7 2.3,-0.7 1.7,0 2.7,0.7 2.7,2.3 v 5.2 z m -0.6,-3.6 c -2,0 -2.8,0.5 -2.8,1.4 0,0.8 0.6,1.1 1.3,1.1 0.6,0 1.1,-0.3 1.5,-0.6 z"
           class="st1" />
      </g>
    </g>
  </g>
  <g
     inkscape:label="Vrstva 2"
     id="layer2"
     inkscape:groupmode="layer" />
</svg>
